G04 #@! TF.GenerationSoftware,KiCad,Pcbnew,7.0.8+1*
G04 #@! TF.CreationDate,2023-11-06T10:27:29+00:00*
G04 #@! TF.ProjectId,wled-pcb,776c6564-2d70-4636-922e-6b696361645f,rev?*
G04 #@! TF.SameCoordinates,Original*
G04 #@! TF.FileFunction,Soldermask,Bot*
G04 #@! TF.FilePolarity,Negative*
%FSLAX46Y46*%
G04 Gerber Fmt 4.6, Leading zero omitted, Abs format (unit mm)*
G04 Created by KiCad (PCBNEW 7.0.8+1) date 2023-11-06 10:27:29*
%MOMM*%
%LPD*%
G01*
G04 APERTURE LIST*
%ADD10R,3.000000X3.000000*%
%ADD11C,3.000000*%
%ADD12R,2.200000X2.200000*%
%ADD13O,2.200000X2.200000*%
%ADD14C,1.600000*%
%ADD15O,1.600000X1.600000*%
%ADD16C,2.780000*%
%ADD17R,1.200000X2.000000*%
%ADD18O,1.200000X2.000000*%
%ADD19C,3.600000*%
%ADD20C,5.600000*%
%ADD21R,1.600000X2.400000*%
%ADD22O,1.600000X2.400000*%
%ADD23O,3.000000X2.500000*%
%ADD24R,1.800000X1.800000*%
%ADD25C,1.800000*%
%ADD26R,1.600000X1.600000*%
%ADD27C,2.000000*%
%ADD28R,2.000000X2.000000*%
%ADD29R,1.500000X1.050000*%
%ADD30O,1.500000X1.050000*%
%ADD31R,2.400000X2.400000*%
%ADD32C,2.400000*%
G04 APERTURE END LIST*
D10*
X125730000Y-137160000D03*
D11*
X130810000Y-137160000D03*
X135890000Y-137160000D03*
D12*
X113662500Y-75302500D03*
D13*
X123822500Y-75302500D03*
D14*
X154305000Y-65405000D03*
D15*
X154305000Y-55245000D03*
D14*
X136525000Y-131445000D03*
D15*
X136525000Y-121285000D03*
D16*
X147115000Y-117595000D03*
X143715000Y-117595000D03*
X147115000Y-127515000D03*
X143715000Y-127515000D03*
D17*
X176530000Y-69850000D03*
D18*
X173990000Y-69850000D03*
X171450000Y-69850000D03*
X168910000Y-69850000D03*
X166370000Y-69850000D03*
X163830000Y-69850000D03*
X161290000Y-69850000D03*
X158750000Y-69850000D03*
X156210000Y-69850000D03*
X153670000Y-69850000D03*
X151130000Y-69850000D03*
X148590000Y-69850000D03*
X146050000Y-69850000D03*
X143510000Y-69850000D03*
X140970000Y-69850000D03*
X138430000Y-69850000D03*
X135890000Y-69850000D03*
X133350000Y-69850000D03*
X130810000Y-69850000D03*
X130812720Y-95246320D03*
X133352720Y-95246320D03*
X135890000Y-95250000D03*
X138430000Y-95250000D03*
X140970000Y-95250000D03*
X143510000Y-95250000D03*
X146050000Y-95250000D03*
X148590000Y-95250000D03*
X151130000Y-95250000D03*
X153670000Y-95250000D03*
X156210000Y-95250000D03*
X158750000Y-95250000D03*
X161290000Y-95250000D03*
X163830000Y-95250000D03*
X166370000Y-95250000D03*
X168910000Y-95250000D03*
X171450000Y-95250000D03*
X173990000Y-95250000D03*
X176530000Y-95250000D03*
D10*
X144145000Y-137160000D03*
D11*
X149225000Y-137160000D03*
X154305000Y-137160000D03*
D10*
X107315000Y-137160000D03*
D11*
X112395000Y-137160000D03*
X117475000Y-137160000D03*
D14*
X123190000Y-65405000D03*
D15*
X123190000Y-55245000D03*
D19*
X180340000Y-139065000D03*
D20*
X180340000Y-139065000D03*
D21*
X174005000Y-110505000D03*
D22*
X176545000Y-110505000D03*
X179085000Y-110505000D03*
X179085000Y-102885000D03*
X176545000Y-102885000D03*
X174005000Y-102885000D03*
D21*
X147320000Y-110490000D03*
D22*
X149860000Y-110490000D03*
X152400000Y-110490000D03*
X154940000Y-110490000D03*
X157480000Y-110490000D03*
X160020000Y-110490000D03*
X162560000Y-110490000D03*
X162560000Y-102870000D03*
X160020000Y-102870000D03*
X157480000Y-102870000D03*
X154940000Y-102870000D03*
X152400000Y-102870000D03*
X149860000Y-102870000D03*
X147320000Y-102870000D03*
D19*
X99060000Y-57785000D03*
D20*
X99060000Y-57785000D03*
D10*
X100965000Y-95885000D03*
D11*
X100965000Y-100965000D03*
D14*
X174625000Y-65405000D03*
D15*
X174625000Y-55245000D03*
D23*
X150495000Y-63420000D03*
X137995000Y-63420000D03*
X150495000Y-58420000D03*
X137995000Y-58420000D03*
X170715000Y-63460000D03*
X158215000Y-63460000D03*
X170715000Y-58460000D03*
X158215000Y-58460000D03*
D16*
X110285000Y-117595000D03*
X106885000Y-117595000D03*
X110285000Y-127515000D03*
X106885000Y-127515000D03*
X164895000Y-117595000D03*
X161495000Y-117595000D03*
X164895000Y-127515000D03*
X161495000Y-127515000D03*
X128700000Y-117595000D03*
X125300000Y-117595000D03*
X128700000Y-127515000D03*
X125300000Y-127515000D03*
D14*
X154940000Y-131445000D03*
D15*
X154940000Y-121285000D03*
D14*
X100965000Y-131445000D03*
D15*
X100965000Y-121285000D03*
D24*
X106680000Y-61600000D03*
D25*
X106680000Y-59060000D03*
D26*
X132710000Y-110480000D03*
D15*
X135250000Y-110480000D03*
X135250000Y-102860000D03*
X132710000Y-102860000D03*
D14*
X133985000Y-65405000D03*
D15*
X133985000Y-55245000D03*
D24*
X128905000Y-61595000D03*
D25*
X128905000Y-59055000D03*
D27*
X115055000Y-101045000D03*
X122555000Y-101045000D03*
X115055000Y-96045000D03*
X122555000Y-96045000D03*
X115055000Y-106045000D03*
X122555000Y-106045000D03*
D28*
X115055000Y-81045000D03*
D27*
X122555000Y-81045000D03*
D29*
X100965000Y-109220000D03*
D30*
X100965000Y-110490000D03*
X100965000Y-111760000D03*
D19*
X99060000Y-139065000D03*
D20*
X99060000Y-139065000D03*
D31*
X101045000Y-80645000D03*
D32*
X106045000Y-80645000D03*
D14*
X118110000Y-131445000D03*
D15*
X118110000Y-121285000D03*
D14*
X111760000Y-65405000D03*
D15*
X111760000Y-55245000D03*
D10*
X161925000Y-137160000D03*
D11*
X167005000Y-137160000D03*
X172085000Y-137160000D03*
D19*
X180340000Y-57785000D03*
D20*
X180340000Y-57785000D03*
D24*
X117475000Y-61595000D03*
D25*
X117475000Y-59055000D03*
D14*
X172720000Y-131445000D03*
D15*
X172720000Y-121285000D03*
M02*
