M48
INCH,TZ
T1C0.0157
T2C0.0295
T3C0.0315
T4C0.0354
T5C0.0433
T6C0.0472
T7C0.0512
T8C0.0598
T9C0.0701
T10C0.1260
%
G90
G05
T1
X60750Y-33000
T2
X39750Y-43000
X39750Y-43500
X39750Y-44000
T3
X39750Y-47750
X39750Y-51750
X44000Y-21750
X44000Y-25750
X46500Y-47750
X46500Y-51750
X48500Y-21750
X48500Y-25750
X51500Y-27500
X51501Y-37499
X52248Y-40496
X52248Y-43496
X52500Y-27500
X52501Y-37499
X52750Y-21750
X52750Y-25750
X53248Y-40496
X53248Y-43496
X53500Y-27500
X53500Y-37500
X53750Y-47750
X53750Y-51750
X54500Y-27500
X54500Y-37500
X55500Y-27500
X55500Y-37500
X56500Y-27500
X56500Y-37500
X57500Y-27500
X57500Y-37500
X58000Y-40500
X58000Y-43500
X58500Y-27500
X58500Y-37500
X59000Y-40500
X59000Y-43500
X59500Y-27500
X59500Y-37500
X60000Y-40500
X60000Y-43500
X60500Y-27500
X60500Y-37500
X60750Y-21750
X60750Y-25750
X61000Y-40500
X61000Y-43500
X61000Y-47750
X61000Y-51750
X61500Y-27500
X61500Y-37500
X62000Y-40500
X62000Y-43500
X62500Y-27500
X62500Y-37500
X63000Y-40500
X63000Y-43500
X63500Y-27500
X63500Y-37500
X64000Y-40500
X64000Y-43500
X64500Y-27500
X64500Y-37500
X65500Y-27500
X65500Y-37500
X66500Y-27500
X66500Y-37500
X67500Y-27500
X67500Y-37500
X68000Y-47750
X68000Y-51750
X68500Y-27500
X68500Y-37500
X68506Y-40506
X68506Y-43506
X68750Y-21750
X68750Y-25750
X69500Y-27500
X69500Y-37500
X69506Y-40506
X69506Y-43506
X70506Y-40506
X70506Y-43506
T4
X42000Y-23252
X42000Y-24252
X46250Y-23250
X46250Y-24250
X50750Y-23250
X50750Y-24250
T5
X44749Y-29647
X48749Y-29647
T6
X39781Y-31750
X41750Y-31750
X54329Y-23000
X54329Y-24969
X59250Y-23000
X59250Y-24969
X62289Y-23016
X62289Y-24984
X67211Y-23016
X67211Y-24984
T7
X45297Y-31907
X45297Y-37813
X45297Y-39781
X45297Y-41750
X48250Y-31907
X48250Y-37813
X48250Y-39781
X48250Y-41750
T8
X39750Y-37750
X39750Y-39750
X42250Y-54000
X44250Y-54000
X46250Y-54000
X49500Y-54000
X51500Y-54000
X53500Y-54000
X56750Y-54000
X58750Y-54000
X60750Y-54000
X63750Y-54000
X65750Y-54000
X67750Y-54000
T9
X42081Y-46297
X42081Y-50203
X43419Y-46297
X43419Y-50203
X49331Y-46297
X49331Y-50203
X50669Y-46297
X50669Y-50203
X56581Y-46297
X56581Y-50203
X57919Y-46297
X57919Y-50203
X63581Y-46297
X63581Y-50203
X64919Y-46297
X64919Y-50203
T10
X39000Y-22750
X39000Y-54750
X71000Y-22750
X71000Y-54750
T0
M30
